<svg viewBox="11.8 9.068 95.2 93.932" xmlns="http://www.w3.org/2000/svg">
  <path d="M50.7 11.1c-2 1.1-4.9 3.8-6.4 5.9-8.2 12.6.5 29 15.4 29 6.3 0 9.9-1.6 14-6.4 6-6.7 6.7-15.4 1.8-22.7-4.8-7.3-16.7-10.1-24.8-5.8zM23.5 38.8c-5.5 3.5-7.4 8.1-5.5 13.8 3.3 9.8 18 10.1 22 .5 4-9.8-7.7-19.9-16.5-14.3zm61.7-.1C74.9 43.8 78.6 60 90.1 60c5.3 0 9.3-2.2 10.9-6 2.8-6.7.5-13-5.5-15.6-4.4-1.8-6.2-1.7-10.3.3zM54 51.9C47.1 54 41.9 58.4 38.4 65c-1.6 2.9-1.9 6.3-2.2 20.7l-.4 17.3H83V85.8c0-15.4-.2-17.6-2.1-21.5C76.3 54.7 63.7 49 54 51.9zm-33.6 16c-1.7 1-4.2 3.6-5.5 5.7-2.1 3.5-2.4 5.3-2.8 16.6l-.3 12.8h15.1l.3-18.5c.3-17.9.2-18.5-1.7-18.5-1.1 0-3.4.9-5.1 1.9zm72 .3c.3 1.3.6 9.6.6 18.5V103h14V90.5c0-10.5-.3-13.2-2-16.4-2.1-4.2-7.4-8.1-11-8.1-1.8 0-2.1.4-1.6 2.2z"/>
</svg>
